Coordinates
version=1
nRows=12
nColumns=24
inDegrees=yes

Units are S.I. units (second, meters, Newtons, ...)
Angles are in degrees.

endheader
time	pelvis_tilt	pelvis_list	pelvis_rotation	pelvis_tx	pelvis_ty	pelvis_tz	hip_flexion_r	hip_adduction_r	hip_rotation_r	knee_angle_r	ankle_angle_r	subtalar_angle_r	mtp_angle_r	hip_flexion_l	hip_adduction_l	hip_rotation_l	knee_angle_l	ankle_angle_l	subtalar_angle_l	mtp_angle_l	lumbar_extension	lumbar_bending	lumbar_rotation
      0.79000000	     -0.32488904	     -3.50823349	      1.54765449	      0.28485481	      1.01073703	      0.03529646	      6.12354520	      4.47371405	      3.42261290	     -7.07061745	      2.95538542	      0.00000000	      0.00000000	     18.53071997	     -5.79959112	      2.26038205	    -64.26185601	      2.96739523	      0.00000000	      0.00000000	    -11.74046425	      8.11960421	      1.61484819
      0.80000000	     -0.43223260	     -3.26267913	      1.58105813	      0.28392524	      1.01153642	      0.03533538	      5.55617138	      4.19684344	      3.31510771	     -6.58511809	      2.97884281	      0.00000000	      0.00000000	     19.30393863	     -5.33097946	      2.54599925	    -63.23423532	      3.64108616	      0.00000000	      0.00000000	    -11.75587049	      7.93691303	      1.70805972
      0.81000000	     -0.57219969	     -3.05828832	      1.61020519	      0.28298247	      1.01217421	      0.03536116	      5.02756196	      3.96677435	      3.18739915	     -6.11447803	      3.07457873	      0.00000000	      0.00000000	     20.05897041	     -4.93090699	      2.79878805	    -61.98980298	      4.14139472	      0.00000000	      0.00000000	    -11.73394547	      7.79554170	      1.79723269
      0.82000000	     -0.72003510	     -2.83540662	      1.67290705	      0.28196438	      1.01270316	      0.03526667	      4.49040184	      3.70343669	      3.00395450	     -5.58890372	      3.10031718	      0.00000000	      0.00000000	     20.77390072	     -4.51137905	      3.08105364	    -60.54914536	      4.52997620	      0.00000000	      0.00000000	    -11.71724664	      7.63182993	      1.83950121
      0.83000000	     -0.83272490	     -2.86020499	      1.64703318	      0.28079537	      1.01309248	      0.03538080	      4.10698327	      3.73727742	      2.86716319	     -5.45040535	      3.22242767	      0.00000000	      0.00000000	     21.44441003	     -4.46993862	      3.23721795	    -58.98569562	      4.67536529	      0.00000000	      0.00000000	    -11.77701592	      7.71755477	      2.03467013
      0.84000000	     -1.05229978	     -2.53156801	      1.80345429	      0.27985602	      1.01330273	      0.03505199	      3.48036922	      3.33901767	      2.63001592	     -4.57735886	      3.23242212	      0.00000000	      0.00000000	     22.08361223	     -3.96005040	      3.49293159	    -57.11676858	      5.07047669	      0.00000000	      0.00000000	    -11.65292829	      7.43630447	      1.93622517
      0.85000000	     -1.19431338	     -2.62165367	      1.81181975	      0.27867789	      1.01340840	      0.03507601	      3.12195397	      3.44142655	      2.47143330	     -4.41362494	      3.39191344	      0.00000000	      0.00000000	     22.67966187	     -4.06226643	      3.56871334	    -55.21120848	      5.19110992	      0.00000000	      0.00000000	    -11.67573437	      7.58240088	      2.09452087
      0.86000000	     -1.34879407	     -2.32606767	      1.95354454	      0.27774907	      1.01349246	      0.03471239	      2.40026532	      3.08525469	      2.24918472	     -3.47340678	      3.32870667	      0.00000000	      0.00000000	     23.10264830	     -3.68417964	      3.71839833	    -52.95083901	      5.44699170	      0.00000000	      0.00000000	    -11.64056685	      7.32059680	      2.01277132
      0.87000000	     -1.52225809	     -2.48120965	      1.99105491	      0.27660905	      1.01331004	      0.03469266	      2.06009396	      3.25867416	      2.09685098	     -3.26455165	      3.54935652	      0.00000000	      0.00000000	     23.61953624	     -3.92911244	      3.71291150	    -50.72760408	      5.56733886	      0.00000000	      0.00000000	    -11.61804869	      7.51960089	      2.13169053
      0.88000000	     -1.73765306	     -2.59823216	      2.03613778	      0.27555882	      1.01296887	      0.03457273	      1.70207716	      3.38010493	      1.97671586	     -2.93030886	      3.78315930	      0.00000000	      0.00000000	     24.09218743	     -4.13661174	      3.70674394	    -48.31831885	      5.69801934	      0.00000000	      0.00000000	    -11.53694830	      7.67057160	      2.23460631
      0.89000000	     -1.97300904	     -2.71244588	      2.09647978	      0.27456333	      1.01253850	      0.03440533	      1.34565514	      3.49372291	      1.88698990	     -2.56080044	      4.00513079	      0.00000000	      0.00000000	     24.50109225	     -4.36093919	      3.67450074	    -45.72009160	      5.78732521	      0.00000000	      0.00000000	    -11.42112677	      7.81398686	      2.31311260
      0.90000000	     -1.98871297	     -2.27569002	      2.12744327	      0.27374964	      1.01261704	      0.03396981	      0.50133182	      2.99115573	      1.87544992	     -1.67829706	      3.84626113	      0.00000000	      0.00000000	     24.32973931	     -4.00879279	      3.53020582	    -42.50801335	      5.43885459	      0.00000000	      0.00000000	    -11.56320956	      7.35423950	      2.30263178
